<?xml version="1.0" encoding="utf-8"?>
<svg xmlns="http://www.w3.org/2000/svg" xmlns:xlink="http://www.w3.org/1999/xlink" width="600" height="400" viewBox="0 0 2400 1600">
<defs>
  <clipPath id="clip040">
    <rect x="0" y="0" width="2400" height="1600"/>
  </clipPath>
</defs>
<path clip-path="url(#clip040)" d="M0 1600 L2400 1600 L2400 0 L0 0  Z" fill="#ffffff" fill-rule="evenodd" fill-opacity="1"/>
<defs>
  <clipPath id="clip041">
    <rect x="149" y="123" width="1965" height="1364"/>
  </clipPath>
</defs>
<path clip-path="url(#clip040)" d="M210.746 1423.18 L2352.76 1423.18 L2352.76 123.472 L210.746 123.472  Z" fill="#ffffff" fill-rule="evenodd" fill-opacity="1"/>
<defs>
  <clipPath id="clip042">
    <rect x="210" y="123" width="2143" height="1301"/>
  </clipPath>
</defs>
<polyline clip-path="url(#clip042)" style="stroke:#000000; stroke-linecap:round; stroke-linejoin:round; stroke-width:2; stroke-opacity:0.1; fill:none" points="572.809,1423.18 572.809,123.472 "/>
<polyline clip-path="url(#clip042)" style="stroke:#000000; stroke-linecap:round; stroke-linejoin:round; stroke-width:2; stroke-opacity:0.1; fill:none" points="1088.23,1423.18 1088.23,123.472 "/>
<polyline clip-path="url(#clip042)" style="stroke:#000000; stroke-linecap:round; stroke-linejoin:round; stroke-width:2; stroke-opacity:0.1; fill:none" points="1603.65,1423.18 1603.65,123.472 "/>
<polyline clip-path="url(#clip042)" style="stroke:#000000; stroke-linecap:round; stroke-linejoin:round; stroke-width:2; stroke-opacity:0.1; fill:none" points="2119.07,1423.18 2119.07,123.472 "/>
<polyline clip-path="url(#clip042)" style="stroke:#000000; stroke-linecap:round; stroke-linejoin:round; stroke-width:2; stroke-opacity:0.1; fill:none" points="210.746,1303.92 2352.76,1303.92 "/>
<polyline clip-path="url(#clip042)" style="stroke:#000000; stroke-linecap:round; stroke-linejoin:round; stroke-width:2; stroke-opacity:0.1; fill:none" points="210.746,973.055 2352.76,973.055 "/>
<polyline clip-path="url(#clip042)" style="stroke:#000000; stroke-linecap:round; stroke-linejoin:round; stroke-width:2; stroke-opacity:0.1; fill:none" points="210.746,642.186 2352.76,642.186 "/>
<polyline clip-path="url(#clip042)" style="stroke:#000000; stroke-linecap:round; stroke-linejoin:round; stroke-width:2; stroke-opacity:0.1; fill:none" points="210.746,311.318 2352.76,311.318 "/>
<polyline clip-path="url(#clip040)" style="stroke:#000000; stroke-linecap:round; stroke-linejoin:round; stroke-width:4; stroke-opacity:1; fill:none" points="210.746,1423.18 2352.76,1423.18 "/>
<polyline clip-path="url(#clip040)" style="stroke:#000000; stroke-linecap:round; stroke-linejoin:round; stroke-width:4; stroke-opacity:1; fill:none" points="572.809,1423.18 572.809,1404.28 "/>
<polyline clip-path="url(#clip040)" style="stroke:#000000; stroke-linecap:round; stroke-linejoin:round; stroke-width:4; stroke-opacity:1; fill:none" points="1088.23,1423.18 1088.23,1404.28 "/>
<polyline clip-path="url(#clip040)" style="stroke:#000000; stroke-linecap:round; stroke-linejoin:round; stroke-width:4; stroke-opacity:1; fill:none" points="1603.65,1423.18 1603.65,1404.28 "/>
<polyline clip-path="url(#clip040)" style="stroke:#000000; stroke-linecap:round; stroke-linejoin:round; stroke-width:4; stroke-opacity:1; fill:none" points="2119.07,1423.18 2119.07,1404.28 "/>
<path clip-path="url(#clip040)" d="M542.566 1468.75 L572.242 1468.75 L572.242 1472.69 L542.566 1472.69 L542.566 1468.75 Z" fill="#000000" fill-rule="nonzero" fill-opacity="1" /><path clip-path="url(#clip040)" d="M583.145 1481.64 L590.784 1481.64 L590.784 1455.28 L582.473 1456.95 L582.473 1452.69 L590.737 1451.02 L595.413 1451.02 L595.413 1481.64 L603.052 1481.64 L603.052 1485.58 L583.145 1485.58 L583.145 1481.64 Z" fill="#000000" fill-rule="nonzero" fill-opacity="1" /><path clip-path="url(#clip040)" d="M1088.23 1454.1 Q1084.62 1454.1 1082.79 1457.66 Q1080.98 1461.2 1080.98 1468.33 Q1080.98 1475.44 1082.79 1479.01 Q1084.62 1482.55 1088.23 1482.55 Q1091.86 1482.55 1093.67 1479.01 Q1095.5 1475.44 1095.5 1468.33 Q1095.5 1461.2 1093.67 1457.66 Q1091.86 1454.1 1088.23 1454.1 M1088.23 1450.39 Q1094.04 1450.39 1097.09 1455 Q1100.17 1459.58 1100.17 1468.33 Q1100.17 1477.06 1097.09 1481.67 Q1094.04 1486.25 1088.23 1486.25 Q1082.42 1486.25 1079.34 1481.67 Q1076.28 1477.06 1076.28 1468.33 Q1076.28 1459.58 1079.34 1455 Q1082.42 1450.39 1088.23 1450.39 Z" fill="#000000" fill-rule="nonzero" fill-opacity="1" /><path clip-path="url(#clip040)" d="M1594.03 1481.64 L1601.67 1481.64 L1601.67 1455.28 L1593.36 1456.95 L1593.36 1452.69 L1601.62 1451.02 L1606.3 1451.02 L1606.3 1481.64 L1613.94 1481.64 L1613.94 1485.58 L1594.03 1485.58 L1594.03 1481.64 Z" fill="#000000" fill-rule="nonzero" fill-opacity="1" /><path clip-path="url(#clip040)" d="M2113.72 1481.64 L2130.04 1481.64 L2130.04 1485.58 L2108.1 1485.58 L2108.1 1481.64 Q2110.76 1478.89 2115.34 1474.26 Q2119.95 1469.61 2121.13 1468.27 Q2123.37 1465.74 2124.25 1464.01 Q2125.16 1462.25 2125.16 1460.56 Q2125.16 1457.8 2123.21 1456.07 Q2121.29 1454.33 2118.19 1454.33 Q2115.99 1454.33 2113.54 1455.09 Q2111.11 1455.86 2108.33 1457.41 L2108.33 1452.69 Q2111.15 1451.55 2113.61 1450.97 Q2116.06 1450.39 2118.1 1450.39 Q2123.47 1450.39 2126.66 1453.08 Q2129.86 1455.77 2129.86 1460.26 Q2129.86 1462.39 2129.05 1464.31 Q2128.26 1466.2 2126.15 1468.8 Q2125.57 1469.47 2122.47 1472.69 Q2119.37 1475.88 2113.72 1481.64 Z" fill="#000000" fill-rule="nonzero" fill-opacity="1" /><path clip-path="url(#clip040)" d="M1298.37 1532.4 L1285.47 1549.74 L1299.03 1568.04 L1292.13 1568.04 L1281.75 1554.04 L1271.37 1568.04 L1264.47 1568.04 L1278.31 1549.39 L1265.65 1532.4 L1272.55 1532.4 L1282.01 1545.1 L1291.46 1532.4 L1298.37 1532.4 Z" fill="#000000" fill-rule="nonzero" fill-opacity="1" /><polyline clip-path="url(#clip040)" style="stroke:#000000; stroke-linecap:round; stroke-linejoin:round; stroke-width:4; stroke-opacity:1; fill:none" points="210.746,1423.18 210.746,123.472 "/>
<polyline clip-path="url(#clip040)" style="stroke:#000000; stroke-linecap:round; stroke-linejoin:round; stroke-width:4; stroke-opacity:1; fill:none" points="210.746,1303.92 229.644,1303.92 "/>
<polyline clip-path="url(#clip040)" style="stroke:#000000; stroke-linecap:round; stroke-linejoin:round; stroke-width:4; stroke-opacity:1; fill:none" points="210.746,973.055 229.644,973.055 "/>
<polyline clip-path="url(#clip040)" style="stroke:#000000; stroke-linecap:round; stroke-linejoin:round; stroke-width:4; stroke-opacity:1; fill:none" points="210.746,642.186 229.644,642.186 "/>
<polyline clip-path="url(#clip040)" style="stroke:#000000; stroke-linecap:round; stroke-linejoin:round; stroke-width:4; stroke-opacity:1; fill:none" points="210.746,311.318 229.644,311.318 "/>
<path clip-path="url(#clip040)" d="M114.631 1304.37 L144.306 1304.37 L144.306 1308.31 L114.631 1308.31 L114.631 1304.37 Z" fill="#000000" fill-rule="nonzero" fill-opacity="1" /><path clip-path="url(#clip040)" d="M158.427 1317.27 L174.746 1317.27 L174.746 1321.2 L152.802 1321.2 L152.802 1317.27 Q155.464 1314.51 160.047 1309.88 Q164.653 1305.23 165.834 1303.89 Q168.079 1301.37 168.959 1299.63 Q169.862 1297.87 169.862 1296.18 Q169.862 1293.43 167.917 1291.69 Q165.996 1289.95 162.894 1289.95 Q160.695 1289.95 158.241 1290.72 Q155.811 1291.48 153.033 1293.03 L153.033 1288.31 Q155.857 1287.18 158.311 1286.6 Q160.765 1286.02 162.802 1286.02 Q168.172 1286.02 171.366 1288.7 Q174.561 1291.39 174.561 1295.88 Q174.561 1298.01 173.751 1299.93 Q172.964 1301.83 170.857 1304.42 Q170.278 1305.09 167.177 1308.31 Q164.075 1311.5 158.427 1317.27 Z" fill="#000000" fill-rule="nonzero" fill-opacity="1" /><path clip-path="url(#clip040)" d="M114.26 973.506 L143.936 973.506 L143.936 977.441 L114.26 977.441 L114.26 973.506 Z" fill="#000000" fill-rule="nonzero" fill-opacity="1" /><path clip-path="url(#clip040)" d="M154.839 986.399 L162.477 986.399 L162.477 960.034 L154.167 961.7 L154.167 957.441 L162.431 955.775 L167.107 955.775 L167.107 986.399 L174.746 986.399 L174.746 990.335 L154.839 990.335 L154.839 986.399 Z" fill="#000000" fill-rule="nonzero" fill-opacity="1" /><path clip-path="url(#clip040)" d="M162.802 627.985 Q159.19 627.985 157.362 631.55 Q155.556 635.091 155.556 642.221 Q155.556 649.327 157.362 652.892 Q159.19 656.434 162.802 656.434 Q166.436 656.434 168.241 652.892 Q170.07 649.327 170.07 642.221 Q170.07 635.091 168.241 631.55 Q166.436 627.985 162.802 627.985 M162.802 624.281 Q168.612 624.281 171.667 628.888 Q174.746 633.471 174.746 642.221 Q174.746 650.948 171.667 655.554 Q168.612 660.137 162.802 660.137 Q156.991 660.137 153.913 655.554 Q150.857 650.948 150.857 642.221 Q150.857 633.471 153.913 628.888 Q156.991 624.281 162.802 624.281 Z" fill="#000000" fill-rule="nonzero" fill-opacity="1" /><path clip-path="url(#clip040)" d="M154.839 324.663 L162.477 324.663 L162.477 298.297 L154.167 299.964 L154.167 295.704 L162.431 294.038 L167.107 294.038 L167.107 324.663 L174.746 324.663 L174.746 328.598 L154.839 328.598 L154.839 324.663 Z" fill="#000000" fill-rule="nonzero" fill-opacity="1" /><path clip-path="url(#clip040)" d="M67.3143 771.639 Q73.68 774.122 75.6216 776.477 Q77.5631 778.832 77.5631 782.779 L77.5631 787.458 L72.6615 787.458 L72.6615 784.02 Q72.6615 781.601 71.5157 780.265 Q70.3699 778.928 66.1048 777.305 L63.4312 776.254 L28.3562 790.673 L28.3562 784.466 L56.238 773.326 L28.3562 762.186 L28.3562 755.979 L67.3143 771.639 Z" fill="#000000" fill-rule="nonzero" fill-opacity="1" /><path clip-path="url(#clip040)" d="M889.097 12.096 L927.337 12.096 L927.337 18.9825 L897.28 18.9825 L897.28 36.8875 L926.082 36.8875 L926.082 43.7741 L897.28 43.7741 L897.28 65.6895 L928.066 65.6895 L928.066 72.576 L889.097 72.576 L889.097 12.096 Z" fill="#000000" fill-rule="nonzero" fill-opacity="1" /><path clip-path="url(#clip040)" d="M978.905 27.2059 L962.499 49.2833 L979.756 72.576 L970.966 72.576 L957.76 54.752 L944.554 72.576 L935.763 72.576 L953.385 48.8377 L937.262 27.2059 L946.052 27.2059 L958.084 43.369 L970.115 27.2059 L978.905 27.2059 Z" fill="#000000" fill-rule="nonzero" fill-opacity="1" /><path clip-path="url(#clip040)" d="M1010.91 49.7694 Q1001.87 49.7694 998.39 51.8354 Q994.906 53.9013 994.906 58.8839 Q994.906 62.8538 997.499 65.2034 Q1000.13 67.5124 1004.63 67.5124 Q1010.83 67.5124 1014.55 63.1374 Q1018.32 58.7219 1018.32 51.4303 L1018.32 49.7694 L1010.91 49.7694 M1025.77 46.6907 L1025.77 72.576 L1018.32 72.576 L1018.32 65.6895 Q1015.77 69.8214 1011.96 71.8063 Q1008.15 73.7508 1002.64 73.7508 Q995.676 73.7508 991.544 69.8619 Q987.453 65.9325 987.453 59.3701 Q987.453 51.7138 992.557 47.825 Q997.702 43.9361 1007.87 43.9361 L1018.32 43.9361 L1018.32 43.2069 Q1018.32 38.0623 1014.92 35.2672 Q1011.56 32.4315 1005.44 32.4315 Q1001.55 32.4315 997.864 33.3632 Q994.177 34.295 990.774 36.1584 L990.774 29.2718 Q994.866 27.692 998.714 26.9223 Q1002.56 26.1121 1006.21 26.1121 Q1016.05 26.1121 1020.91 31.2163 Q1025.77 36.3204 1025.77 46.6907 Z" fill="#000000" fill-rule="nonzero" fill-opacity="1" /><path clip-path="url(#clip040)" d="M1076.45 35.9153 Q1079.25 30.8922 1083.14 28.5022 Q1087.02 26.1121 1092.29 26.1121 Q1099.38 26.1121 1103.23 31.0947 Q1107.08 36.0368 1107.08 45.1919 L1107.08 72.576 L1099.58 72.576 L1099.58 45.4349 Q1099.58 38.913 1097.27 35.7533 Q1094.96 32.5936 1090.22 32.5936 Q1084.43 32.5936 1081.07 36.4419 Q1077.71 40.2903 1077.71 46.9338 L1077.71 72.576 L1070.21 72.576 L1070.21 45.4349 Q1070.21 38.8725 1067.9 35.7533 Q1065.59 32.5936 1060.77 32.5936 Q1055.06 32.5936 1051.7 36.4824 Q1048.34 40.3308 1048.34 46.9338 L1048.34 72.576 L1040.84 72.576 L1040.84 27.2059 L1048.34 27.2059 L1048.34 34.2544 Q1050.89 30.082 1054.45 28.0971 Q1058.02 26.1121 1062.92 26.1121 Q1067.86 26.1121 1071.31 28.6237 Q1074.79 31.1352 1076.45 35.9153 Z" fill="#000000" fill-rule="nonzero" fill-opacity="1" /><path clip-path="url(#clip040)" d="M1129.15 65.7705 L1129.15 89.8329 L1121.66 89.8329 L1121.66 27.2059 L1129.15 27.2059 L1129.15 34.0924 Q1131.5 30.0415 1135.07 28.0971 Q1138.67 26.1121 1143.66 26.1121 Q1151.92 26.1121 1157.06 32.6746 Q1162.25 39.2371 1162.25 49.9314 Q1162.25 60.6258 1157.06 67.1883 Q1151.92 73.7508 1143.66 73.7508 Q1138.67 73.7508 1135.07 71.8063 Q1131.5 69.8214 1129.15 65.7705 M1154.51 49.9314 Q1154.51 41.7081 1151.11 37.0496 Q1147.75 32.3505 1141.83 32.3505 Q1135.92 32.3505 1132.52 37.0496 Q1129.15 41.7081 1129.15 49.9314 Q1129.15 58.1548 1132.52 62.8538 Q1135.92 67.5124 1141.83 67.5124 Q1147.75 67.5124 1151.11 62.8538 Q1154.51 58.1548 1154.51 49.9314 Z" fill="#000000" fill-rule="nonzero" fill-opacity="1" /><path clip-path="url(#clip040)" d="M1174.6 9.54393 L1182.06 9.54393 L1182.06 72.576 L1174.6 72.576 L1174.6 9.54393 Z" fill="#000000" fill-rule="nonzero" fill-opacity="1" /><path clip-path="url(#clip040)" d="M1236.46 48.0275 L1236.46 51.6733 L1202.19 51.6733 Q1202.68 59.3701 1206.81 63.421 Q1210.98 67.4314 1218.39 67.4314 Q1222.69 67.4314 1226.7 66.3781 Q1230.75 65.3249 1234.72 63.2184 L1234.72 70.267 Q1230.71 71.9684 1226.5 72.8596 Q1222.28 73.7508 1217.95 73.7508 Q1207.09 73.7508 1200.73 67.4314 Q1194.41 61.1119 1194.41 50.3365 Q1194.41 39.1965 1200.41 32.6746 Q1206.44 26.1121 1216.65 26.1121 Q1225.81 26.1121 1231.11 32.0264 Q1236.46 37.9003 1236.46 48.0275 M1229.01 45.84 Q1228.93 39.7232 1225.56 36.0774 Q1222.24 32.4315 1216.73 32.4315 Q1210.5 32.4315 1206.73 35.9558 Q1203 39.4801 1202.43 45.8805 L1229.01 45.84 Z" fill="#000000" fill-rule="nonzero" fill-opacity="1" /><path clip-path="url(#clip040)" d="M1267.01 12.096 L1318.17 12.096 L1318.17 18.9825 L1296.7 18.9825 L1296.7 72.576 L1288.48 72.576 L1288.48 18.9825 L1267.01 18.9825 L1267.01 12.096 Z" fill="#000000" fill-rule="nonzero" fill-opacity="1" /><path clip-path="url(#clip040)" d="M1339.84 34.1734 Q1338.59 33.4443 1337.09 33.1202 Q1335.63 32.7556 1333.85 32.7556 Q1327.53 32.7556 1324.12 36.8875 Q1320.76 40.9789 1320.76 48.6757 L1320.76 72.576 L1313.27 72.576 L1313.27 27.2059 L1320.76 27.2059 L1320.76 34.2544 Q1323.11 30.1225 1326.88 28.1376 Q1330.65 26.1121 1336.03 26.1121 Q1336.8 26.1121 1337.73 26.2337 Q1338.67 26.3147 1339.8 26.5172 L1339.84 34.1734 Z" fill="#000000" fill-rule="nonzero" fill-opacity="1" /><path clip-path="url(#clip040)" d="M1368.28 49.7694 Q1359.24 49.7694 1355.76 51.8354 Q1352.28 53.9013 1352.28 58.8839 Q1352.28 62.8538 1354.87 65.2034 Q1357.5 67.5124 1362 67.5124 Q1368.2 67.5124 1371.92 63.1374 Q1375.69 58.7219 1375.69 51.4303 L1375.69 49.7694 L1368.28 49.7694 M1383.15 46.6907 L1383.15 72.576 L1375.69 72.576 L1375.69 65.6895 Q1373.14 69.8214 1369.33 71.8063 Q1365.52 73.7508 1360.01 73.7508 Q1353.05 73.7508 1348.91 69.8619 Q1344.82 65.9325 1344.82 59.3701 Q1344.82 51.7138 1349.93 47.825 Q1355.07 43.9361 1365.24 43.9361 L1375.69 43.9361 L1375.69 43.2069 Q1375.69 38.0623 1372.29 35.2672 Q1368.93 32.4315 1362.81 32.4315 Q1358.92 32.4315 1355.23 33.3632 Q1351.55 34.295 1348.15 36.1584 L1348.15 29.2718 Q1352.24 27.692 1356.09 26.9223 Q1359.93 26.1121 1363.58 26.1121 Q1373.42 26.1121 1378.28 31.2163 Q1383.15 36.3204 1383.15 46.6907 Z" fill="#000000" fill-rule="nonzero" fill-opacity="1" /><path clip-path="url(#clip040)" d="M1398.5 27.2059 L1405.95 27.2059 L1405.95 73.3862 Q1405.95 82.0551 1402.63 85.944 Q1399.35 89.8329 1392.02 89.8329 L1389.18 89.8329 L1389.18 83.5134 L1391.17 83.5134 Q1395.42 83.5134 1396.96 81.5285 Q1398.5 79.5841 1398.5 73.3862 L1398.5 27.2059 M1398.5 9.54393 L1405.95 9.54393 L1405.95 18.9825 L1398.5 18.9825 L1398.5 9.54393 Z" fill="#000000" fill-rule="nonzero" fill-opacity="1" /><path clip-path="url(#clip040)" d="M1460.36 48.0275 L1460.36 51.6733 L1426.08 51.6733 Q1426.57 59.3701 1430.7 63.421 Q1434.88 67.4314 1442.29 67.4314 Q1446.58 67.4314 1450.59 66.3781 Q1454.64 65.3249 1458.61 63.2184 L1458.61 70.267 Q1454.6 71.9684 1450.39 72.8596 Q1446.18 73.7508 1441.84 73.7508 Q1430.99 73.7508 1424.63 67.4314 Q1418.31 61.1119 1418.31 50.3365 Q1418.31 39.1965 1424.3 32.6746 Q1430.34 26.1121 1440.55 26.1121 Q1449.7 26.1121 1455.01 32.0264 Q1460.36 37.9003 1460.36 48.0275 M1452.9 45.84 Q1452.82 39.7232 1449.46 36.0774 Q1446.14 32.4315 1440.63 32.4315 Q1434.39 32.4315 1430.62 35.9558 Q1426.89 39.4801 1426.33 45.8805 L1452.9 45.84 Z" fill="#000000" fill-rule="nonzero" fill-opacity="1" /><path clip-path="url(#clip040)" d="M1505.24 28.9478 L1505.24 35.9153 Q1502.08 34.1734 1498.88 33.3227 Q1495.72 32.4315 1492.48 32.4315 Q1485.23 32.4315 1481.22 37.0496 Q1477.21 41.6271 1477.21 49.9314 Q1477.21 58.2358 1481.22 62.8538 Q1485.23 67.4314 1492.48 67.4314 Q1495.72 67.4314 1498.88 66.5807 Q1502.08 65.6895 1505.24 63.9476 L1505.24 70.8341 Q1502.12 72.2924 1498.76 73.0216 Q1495.44 73.7508 1491.67 73.7508 Q1481.42 73.7508 1475.38 67.3098 Q1469.35 60.8689 1469.35 49.9314 Q1469.35 38.832 1475.42 32.472 Q1481.54 26.1121 1492.15 26.1121 Q1495.6 26.1121 1498.88 26.8413 Q1502.16 27.5299 1505.24 28.9478 Z" fill="#000000" fill-rule="nonzero" fill-opacity="1" /><path clip-path="url(#clip040)" d="M1525.57 14.324 L1525.57 27.2059 L1540.93 27.2059 L1540.93 32.9987 L1525.57 32.9987 L1525.57 57.6282 Q1525.57 63.1779 1527.07 64.7578 Q1528.61 66.3376 1533.27 66.3376 L1540.93 66.3376 L1540.93 72.576 L1533.27 72.576 Q1524.64 72.576 1521.36 69.3758 Q1518.08 66.1351 1518.08 57.6282 L1518.08 32.9987 L1512.61 32.9987 L1512.61 27.2059 L1518.08 27.2059 L1518.08 14.324 L1525.57 14.324 Z" fill="#000000" fill-rule="nonzero" fill-opacity="1" /><path clip-path="url(#clip040)" d="M1568.31 32.4315 Q1562.32 32.4315 1558.83 37.1306 Q1555.35 41.7891 1555.35 49.9314 Q1555.35 58.0738 1558.79 62.7728 Q1562.28 67.4314 1568.31 67.4314 Q1574.27 67.4314 1577.75 62.7323 Q1581.23 58.0333 1581.23 49.9314 Q1581.23 41.8701 1577.75 37.1711 Q1574.27 32.4315 1568.31 32.4315 M1568.31 26.1121 Q1578.03 26.1121 1583.58 32.4315 Q1589.13 38.7509 1589.13 49.9314 Q1589.13 61.0714 1583.58 67.4314 Q1578.03 73.7508 1568.31 73.7508 Q1558.55 73.7508 1553 67.4314 Q1547.49 61.0714 1547.49 49.9314 Q1547.49 38.7509 1553 32.4315 Q1558.55 26.1121 1568.31 26.1121 Z" fill="#000000" fill-rule="nonzero" fill-opacity="1" /><path clip-path="url(#clip040)" d="M1627.78 34.1734 Q1626.52 33.4443 1625.02 33.1202 Q1623.57 32.7556 1621.78 32.7556 Q1615.46 32.7556 1612.06 36.8875 Q1608.7 40.9789 1608.7 48.6757 L1608.7 72.576 L1601.21 72.576 L1601.21 27.2059 L1608.7 27.2059 L1608.7 34.2544 Q1611.05 30.1225 1614.82 28.1376 Q1618.58 26.1121 1623.97 26.1121 Q1624.74 26.1121 1625.67 26.2337 Q1626.6 26.3147 1627.74 26.5172 L1627.78 34.1734 Z" fill="#000000" fill-rule="nonzero" fill-opacity="1" /><path clip-path="url(#clip040)" d="M1654.47 76.7889 Q1651.31 84.8907 1648.32 87.3618 Q1645.32 89.8329 1640.3 89.8329 L1634.34 89.8329 L1634.34 83.5945 L1638.72 83.5945 Q1641.8 83.5945 1643.5 82.1361 Q1645.2 80.6778 1647.26 75.2496 L1648.6 71.8468 L1630.25 27.2059 L1638.15 27.2059 L1652.33 62.6918 L1666.51 27.2059 L1674.41 27.2059 L1654.47 76.7889 Z" fill="#000000" fill-rule="nonzero" fill-opacity="1" /><polyline clip-path="url(#clip042)" style="stroke:#009af9; stroke-linecap:round; stroke-linejoin:round; stroke-width:8; stroke-opacity:1; fill:none" points="588.762,228.782 834.223,312.414 1096.19,270.455 1452.25,542.087 1400.41,447.228 1293.76,441.975 1024.19,624.145 1167.85,602.205 1188.99,756.134 1400.41,579.099 1210.76,445.566 1022.31,688.256 961.599,563.682 938.7,787.329 538.789,563.097 739.905,454.065 830.991,613.625 1162.79,712.174 1214.64,719.586 1415.33,843.429 1205.29,986.21 1105.61,990.534 752.436,853.349 1020.9,763.283 1015.56,1101.99 883.725,1194.98 704.432,892.696 833.916,1044.36 843.085,903.793 1049.45,795.693 973.459,845.035 991.369,954.465 1259.66,863.439 1394.37,927.457 1374.7,706.924 1271.45,421.656 1421.36,448.241 1047.35,550.97 739.915,611.926 861.982,678.218 650.557,677.691 484.956,480.257 954.932,627.901 1199.78,806.185 705.797,903.488 803.308,809.613 604.928,973.337 744.831,987.618 1321.61,1111.71 1232.23,1034.55 1215.77,1032.78 1122.46,802.86 589.996,1004.11 271.369,1174.49 708.525,1386.4 801.995,1278.12 1413.6,1106.05 1328.69,921.837 1857.08,1085 1911.39,1104.99 1996.28,924.185 1886.66,718.726 1449.52,762.172 1233.32,690.766 1399.54,661.691 1315.32,453.809 1259.01,160.256 1048.48,390.041 1278.48,344.053 1677.62,297.648 1792.97,292.881 1464.46,375.99 1695.65,606.995 1399.82,445.239 1593.86,487.811 1741.41,439.746 1894.68,461.242 1690.07,573.347 1886.67,627.08 2048.17,618.391 1932.21,624.855 1838.49,556.919 2044.88,752.061 1928.93,896.085 2184.33,960.735 2012.49,960.286 2102.16,774.519 2292.13,663.558 2143.1,732.322 1903.63,408.653 1545.57,657.544 1738.2,653.075 1748.63,635.996 1588.75,618.308 1351.16,517.448 1547.27,575.158 1484.72,567.449 873.707,757.165 1032.24,851.343 1171.12,997.882 "/>
<path clip-path="url(#clip040)" d="M2014.72 1379.86 L2281.36 1379.86 L2281.36 1276.18 L2014.72 1276.18  Z" fill="#ffffff" fill-rule="evenodd" fill-opacity="1"/>
<polyline clip-path="url(#clip040)" style="stroke:#000000; stroke-linecap:round; stroke-linejoin:round; stroke-width:4; stroke-opacity:1; fill:none" points="2014.72,1379.86 2281.36,1379.86 2281.36,1276.18 2014.72,1276.18 2014.72,1379.86 "/>
<polyline clip-path="url(#clip040)" style="stroke:#009af9; stroke-linecap:round; stroke-linejoin:round; stroke-width:8; stroke-opacity:1; fill:none" points="2038.52,1328.02 2181.33,1328.02 "/>
<path clip-path="url(#clip040)" d="M2218.97 1347.7 Q2217.16 1352.33 2215.45 1353.75 Q2213.74 1355.16 2210.87 1355.16 L2207.46 1355.16 L2207.46 1351.59 L2209.96 1351.59 Q2211.72 1351.59 2212.69 1350.76 Q2213.67 1349.93 2214.85 1346.82 L2215.61 1344.88 L2205.13 1319.37 L2209.64 1319.37 L2217.74 1339.65 L2225.84 1319.37 L2230.36 1319.37 L2218.97 1347.7 Z" fill="#000000" fill-rule="nonzero" fill-opacity="1" /><path clip-path="url(#clip040)" d="M2237.65 1341.36 L2245.29 1341.36 L2245.29 1315 L2236.98 1316.66 L2236.98 1312.4 L2245.24 1310.74 L2249.92 1310.74 L2249.92 1341.36 L2257.56 1341.36 L2257.56 1345.3 L2237.65 1345.3 L2237.65 1341.36 Z" fill="#000000" fill-rule="nonzero" fill-opacity="1" /></svg>
